Coordinates
version=1
nRows=11
nColumns=42
inDegrees=yes

Units are S.I. units (second, meters, Newtons, ...)
If the header above contains a line with 'inDegrees', this indicates whether rotational values are in degrees (yes) or radians (no).

endheader
time	pelvis_tilt	pelvis_list	pelvis_rotation	pelvis_tx	pelvis_ty	pelvis_tz	hip_flexion_r	hip_adduction_r	hip_rotation_r	knee_angle_r	knee_adduction_r	knee_angle_r_beta	ankle_angle_r	subtalar_angle_r	mtp_angle_r	hip_flexion_l	hip_adduction_l	hip_rotation_l	knee_angle_l	knee_adduction_l	knee_angle_l_beta	ankle_angle_l	subtalar_angle_l	mtp_angle_l	lumbar_extension	lumbar_bending	lumbar_rotation	arm_flex_r	arm_add_r	arm_rot_r	elbow_flex_r	pro_sup_r	wrist_flex_r	wrist_dev_r	arm_flex_l	arm_add_l	arm_rot_l	elbow_flex_l	pro_sup_l	wrist_flex_l	wrist_dev_l
      2.94000000	     -0.88083363	     -2.34851936	     -2.22378490	      1.12920168	      0.88091883	     -0.14301840	    -10.25684822	     -1.53692114	     -3.44762571	      6.20654616	     11.85933596	      0.10832467	     17.01637435	      4.29347191	     -7.50027297	     23.04413640	    -13.20930065	     -4.03472632	     15.33795878	     17.09531286	      0.26769788	      2.97491935	     -7.20593678	     -7.50027297	    -16.73150424	      5.42155657	      2.14010957	     -5.58061045	    -14.12513086	     -3.62866458	     18.68752418	     90.00000001	      0.00000000	      0.00000000	    -12.20685447	     -6.37404045	      6.13355587	     21.79329459	     90.00000001	      0.00000000	      0.00000000
      2.95000000	     -0.67989374	     -2.32374864	     -2.45775769	      1.13959909	      0.87936312	     -0.14335387	    -11.16306781	     -1.72072733	     -3.52860875	      6.35686253	     11.98393111	      0.11094818	     17.36059677	      4.34456725	     -7.50026154	     22.68257825	    -12.95753613	     -5.10791089	     12.50249688	     16.47057381	      0.21820974	      2.97758774	     -6.22453483	     -7.50026154	    -16.97591363	      5.20683792	      2.29213386	     -5.60074701	    -14.16549034	     -3.56881577	     18.65608967	     90.00000001	      0.00000000	      0.00000000	    -12.29550362	     -6.25984270	      6.18654059	     21.89329075	     90.00000001	      0.00000000	      0.00000000
      2.96000000	     -0.95750996	     -2.63724514	     -2.60722618	      1.14970856	      0.87706251	     -0.14354358	    -11.47150132	     -1.39092341	     -3.51987243	      6.63100236	     11.91299560	      0.11573282	     17.71540530	      4.35337217	     -7.50025681	     23.15440043	    -13.16124973	     -6.02258548	     10.36594681	     16.03477934	      0.18091990	      2.94088404	     -5.16907687	     -7.50025681	    -16.71438671	      5.37913231	      2.43483372	     -5.65575898	    -14.21828424	     -3.51943475	     18.59872626	     90.00000001	      0.00000000	      0.00000000	    -12.42641532	     -6.13564613	      6.22887223	     22.01140406	     90.00000001	      0.00000000	      0.00000000
      2.97000000	     -0.75737632	     -2.62316877	     -2.86374152	      1.16041225	      0.87544806	     -0.14396768	    -12.38064462	     -1.61293471	     -3.61527001	      6.82691429	     12.05620136	      0.11915213	     18.00749116	      4.52167653	     -7.50024663	     22.80074203	    -12.92739559	     -7.14243722	      8.06238136	     15.49718251	      0.14071510	      3.16303395	     -4.26346916	     -7.50024663	    -16.94524190	      5.15452406	      2.61404640	     -5.70835384	    -14.25079724	     -3.47865397	     18.59841926	     90.00000001	      0.00000000	      0.00000000	    -12.53224688	     -6.04832292	      6.31554193	     22.15545425	     90.00000001	      0.00000000	      0.00000000
      2.98000000	     -0.94347649	     -2.88231115	     -3.07522653	      1.17092275	      0.87328898	     -0.14427762	    -12.81357300	     -1.43101830	     -3.54657421	      7.11302364	     12.04261896	      0.12414568	     18.27810203	      4.62247661	     -7.50024192	     23.12364460	    -13.07741799	     -8.03689509	      6.45646025	     15.15984943	      0.11268649	      3.42562946	     -3.52613926	     -7.50024192	    -16.76628668	      5.24059212	      2.79802536	     -5.77131843	    -14.29142456	     -3.44625720	     18.54801258	     90.00000001	      0.00000000	      0.00000000	    -12.68330931	     -5.94396393	      6.36812406	     22.33178712	     90.00000001	      0.00000000	      0.00000000
      2.99000000	     -1.03628813	     -3.01466692	     -3.29147268	      1.18177478	      0.87128373	     -0.14460563	    -13.38494261	     -1.40568646	     -3.49216717	      7.35326099	     11.99733022	      0.12833862	     18.47009181	      4.75525207	     -7.50023824	     23.32946767	    -13.10153912	     -8.95187660	      5.22780206	     14.89803566	      0.09124236	      3.82334434	     -3.05042443	     -7.50023824	    -16.65801618	      5.15852216	      2.97743610	     -5.87750419	    -14.28347681	     -3.42233367	     18.52149296	     90.00000001	      0.00000000	      0.00000000	    -12.83158799	     -5.88501695	      6.42386641	     22.51497564	     90.00000001	      0.00000000	      0.00000000
      3.00000000	     -1.05132934	     -3.06579554	     -3.56485445	      1.19278973	      0.86944586	     -0.14509505	    -14.02885034	     -1.57070866	     -3.33231294	      7.62722210	     12.05158003	      0.13312014	     18.63734252	      4.95712054	     -7.50023452	     23.43083585	    -13.02832507	     -9.79823222	      4.36643165	     14.64077443	      0.07620861	      4.25105092	     -2.72093670	     -7.50023452	    -16.63155551	      4.98183461	      3.17650698	     -5.97751249	    -14.28985527	     -3.40919135	     18.51794168	     90.00000001	      0.00000000	      0.00000000	    -12.97308942	     -5.83412780	      6.50193797	     22.74327604	     90.00000001	      0.00000000	      0.00000000
      3.01000000	     -0.87714985	     -2.88244513	     -3.83428910	      1.20418492	      0.86793474	     -0.14585577	    -14.88470748	     -2.11969092	     -3.34044151	      7.94363236	     12.24047248	      0.13864254	     18.83574457	      5.43914922	     -7.50022400	     23.32295451	    -12.65383124	    -10.81699397	      3.97270016	     14.33994589	      0.06933670	      4.49936584	     -2.19758429	     -7.50022400	    -16.77446729	      4.54772625	      3.32112193	     -6.10022467	    -14.26574502	     -3.41275075	     18.58472093	     90.00000001	      0.00000000	      0.00000000	    -13.11376185	     -5.82813742	      6.69073717	     22.92369113	     90.00000001	      0.00000000	      0.00000000
      3.02000000	     -1.00072551	     -3.00686321	     -3.89390247	      1.21534349	      0.86611627	     -0.14662786	    -15.38752012	     -2.15936937	     -3.17347649	      8.29392546	     12.23028184	      0.14475631	     18.79088914	      5.49852967	     -7.50022290	     23.76567376	    -12.64384953	    -10.88818110	      4.11673455	     14.26906008	      0.07185057	      4.55357369	     -2.16837215	     -7.50022290	    -16.62226909	      4.49032887	      3.34688452	     -6.23747419	    -14.23766735	     -3.41184534	     18.63380312	     90.00000001	      0.00000000	      0.00000000	    -13.18638980	     -5.78308245	      6.68886618	     23.03526221	     90.00000001	      0.00000000	      0.00000000
      3.03000000	     -1.12225788	     -3.07261251	     -4.04436770	      1.22688269	      0.86445240	     -0.14741479	    -15.88407676	     -2.29394851	     -2.92623117	      8.67055782	     12.18477764	      0.15132978	     18.72908648	      5.57278662	     -7.50022182	     24.06396876	    -12.59930364	    -10.79415118	      4.38799197	     14.23095358	      0.07658491	      4.57499382	     -2.14368713	     -7.50022182	    -16.42640100	      4.36138513	      3.41394369	     -6.39145324	    -14.21104629	     -3.41278534	     18.66830860	     90.00000001	      0.00000000	      0.00000000	    -13.32396395	     -5.73288300	      6.68980300	     23.14319181	     90.00000001	      0.00000000	      0.00000000
      3.04000000	     -1.08935890	     -2.64141828	     -4.54874398	      1.23840599	      0.86319803	     -0.14829628	    -16.37974669	     -3.29371154	     -2.18762499	      9.20180447	     12.54817737	      0.16060179	     18.64364098	      5.81326057	     -7.50021776	     24.18275523	    -12.09195018	    -11.11414407	      5.26040775	     14.05519951	      0.09181144	      4.53914821	     -3.02569400	     -7.50021776	    -16.41401619	      3.61381134	      3.73099127	     -6.43056286	    -14.16617120	     -3.43507501	     18.49827462	     90.00000001	      0.00000000	      0.00000000	    -13.51382108	     -5.80952861	      6.83660818	     23.66217068	     90.00000001	      0.00000000	      0.00000000
